<svg width="50" height="51" viewBox="0 0 50 51" fill="none" xmlns="http://www.w3.org/2000/svg">
<path d="M31.25 39.6139H27.115V22.4044C27.115 22.0919 26.9141 21.8362 26.6685 21.8362H23.3203C23.0748 21.8362 22.8739 22.0919 22.8739 22.4044V39.6139H18.75C18.3761 39.6139 18.1696 40.1608 18.3984 40.5302L24.6484 50.5945C24.6902 50.6624 24.7436 50.7174 24.8045 50.7551C24.8654 50.7929 24.9322 50.8125 25 50.8125C25.0678 50.8125 25.1346 50.7929 25.1955 50.7551C25.2565 50.7174 25.3098 50.6624 25.3516 50.5945L31.6016 40.5302C31.8304 40.1608 31.6239 39.6139 31.25 39.6139V39.6139Z" fill="#ED4C5C"/>
<path d="M41.7076 15.4935C39.1518 6.91362 32.6395 0.8125 25.0112 0.8125C17.3828 0.8125 10.8705 6.90651 8.31473 15.4864C3.53237 17.0845 0 22.6316 0 29.2228C0 37.0712 4.99442 43.428 11.1551 43.428H13.3929C13.6384 43.428 13.8393 43.1723 13.8393 42.8598V38.5982C13.8393 38.2857 13.6384 38.03 13.3929 38.03H11.1551C9.27455 38.03 7.50558 37.0783 6.18862 35.3523C4.87723 33.6335 4.17969 31.3181 4.24107 28.9174C4.29129 27.0423 4.79353 25.2809 5.70312 23.7965C6.63504 22.2836 7.94085 21.1827 9.39174 20.6926L11.5067 19.9895L12.2824 17.3899C12.7623 15.7705 13.4319 14.2577 14.2746 12.8869C15.1064 11.5282 16.0918 10.3339 17.1987 9.3427C19.4922 7.29005 22.1931 6.20336 25.0112 6.20336C27.8292 6.20336 30.5301 7.29005 32.8237 9.3427C33.9342 10.3371 34.9163 11.5303 35.7478 12.8869C36.5904 14.2577 37.26 15.7776 37.74 17.3899L38.51 19.9824L40.6194 20.6926C43.644 21.7296 45.7589 25.2312 45.7589 29.2228C45.7589 31.5738 45.0391 33.7898 43.7333 35.4518C43.0929 36.2716 42.3311 36.9216 41.492 37.3642C40.6529 37.8067 39.7531 38.0331 38.8449 38.03H36.6071C36.3616 38.03 36.1607 38.2857 36.1607 38.5982V42.8598C36.1607 43.1723 36.3616 43.428 36.6071 43.428H38.8449C45.0056 43.428 50 37.0712 50 29.2228C50 22.6387 46.4788 17.0987 41.7076 15.4935Z" fill="#ED4C5C"/>
</svg>
