<svg width="50" height="50" viewBox="0 0 50 50" fill="none" xmlns="http://www.w3.org/2000/svg">
<path d="M46.836 17.8865H45.48V12.0926C45.4789 12.0558 45.4749 12.0191 45.468 11.9828C45.4699 11.75 45.376 11.5246 45.204 11.3487L34.32 0.336545L34.312 0.32946C34.2468 0.267099 34.1728 0.21234 34.092 0.166501L34.02 0.127532C33.9509 0.0934845 33.8778 0.0661655 33.802 0.0460528L33.742 0.0283403C33.6589 0.0099915 33.5736 0.000477911 33.488 0H6.734C5.512 0 4.52 0.880331 4.52 1.96082V17.8847H3.164C1.416 17.8847 0 19.1388 0 20.6869V35.2611C0 36.8074 1.418 38.0633 3.164 38.0633H4.52V48.0392C4.52 49.1197 5.512 50 6.734 50H43.266C44.486 50 45.48 49.1197 45.48 48.0392V38.0633H46.836C48.582 38.0633 50 36.8092 50 35.2611V20.6869C50 19.1406 48.584 17.8865 46.836 17.8865ZM6.734 1.96082H32.38V11.9934C32.38 12.5354 32.876 12.9729 33.488 12.9729H43.268V17.8847H6.734V1.96082V1.96082ZM23.298 28.8278C20.61 27.9775 18.836 26.6597 18.836 24.5784C18.836 22.1358 21.164 20.2884 24.954 20.2884C26.802 20.2884 28.12 20.6072 29.08 21.0093L28.264 23.6007C27.2182 23.1496 26.0692 22.9175 24.906 22.9223C23.322 22.9223 22.554 23.5794 22.554 24.3021C22.554 25.2161 23.44 25.6182 25.552 26.3196C28.408 27.2549 29.726 28.5709 29.726 30.5902C29.726 32.9921 27.664 35.0308 23.226 35.0308C21.378 35.0308 19.556 34.5845 18.644 34.1381L19.388 31.4829C20.6439 32.0508 22.03 32.3562 23.44 32.3757C25.12 32.3757 26.008 31.7575 26.008 30.824C26.008 29.9313 25.242 29.4229 23.298 28.8278V28.8278ZM4.246 27.85C4.246 22.9843 8.18 20.2866 13.072 20.2866C14.968 20.2866 16.406 20.6249 17.054 20.903L16.286 23.4731C15.3145 23.1119 14.2696 22.931 13.216 22.9418C10.338 22.9418 8.084 24.4916 8.084 27.6782C8.084 30.5247 10.002 32.3314 13.24 32.3314C14.368 32.3314 15.568 32.1418 16.31 31.8638L16.84 34.4126C16.192 34.6872 14.656 35.029 12.714 35.029C7.124 35.0308 4.246 31.9293 4.246 27.85V27.85ZM43.266 47.5113H6.734V38.065H43.266V47.5113V47.5113ZM40.31 34.8183H36.04L30.86 20.4992H34.866L36.832 26.5552C37.382 28.2751 37.886 29.8905 38.27 31.6742H38.342C38.751 29.9721 39.2387 28.2856 39.804 26.619L41.868 20.5009H45.752L40.31 34.8183V34.8183Z" fill="#ED4C5C"/>
</svg>
