<?xml version="1.0" encoding="UTF-8"?>
<svg xmlns="http://www.w3.org/2000/svg" xmlns:xlink="http://www.w3.org/1999/xlink" width="30px" height="30px" viewBox="0 0 30 30" version="1.1">
<g id="surface1">
<path style=" stroke:none;fill-rule:nonzero;fill: #fff;fill-opacity:1;" d="M 0 5.625 C 0 4.589844 0.960938 3.75 2.144531 3.75 L 27.855469 3.75 C 29.042969 3.75 30 4.589844 30 5.625 C 30 6.664062 29.042969 7.5 27.855469 7.5 L 2.144531 7.5 C 0.960938 7.5 0 6.664062 0 5.625 Z M 0 15 C 0 13.960938 0.960938 13.125 2.144531 13.125 L 27.855469 13.125 C 29.042969 13.125 30 13.960938 30 15 C 30 16.039062 29.042969 16.875 27.855469 16.875 L 2.144531 16.875 C 0.960938 16.875 0 16.039062 0 15 Z M 27.855469 26.25 L 2.144531 26.25 C 0.960938 26.25 0 25.414062 0 24.375 C 0 23.335938 0.960938 22.5 2.144531 22.5 L 27.855469 22.5 C 29.042969 22.5 30 23.335938 30 24.375 C 30 25.414062 29.042969 26.25 27.855469 26.25 Z M 27.855469 26.25 "/>
</g>
</svg>
