<svg width="50" height="50" viewBox="0 0 50 50" fill="none" xmlns="http://www.w3.org/2000/svg">
<path d="M13.21 25.619C13.21 24.2729 12.154 23.4688 10.292 23.4688C9.53202 23.4688 9.01802 23.5343 8.74802 23.598V27.9216C9.06802 27.9854 9.46002 28.0084 9.99801 28.0084C11.984 28.0084 13.21 27.1175 13.21 25.619Z" fill="#ED4C5C"/>
<path d="M24.742 23.5112C23.908 23.5112 23.368 23.5768 23.048 23.6423V33.2211C23.368 33.2866 23.882 33.2866 24.348 33.2866C27.732 33.3079 29.94 31.6571 29.94 28.1607C29.966 25.1195 27.954 23.5112 24.742 23.5112V23.5112Z" fill="#ED4C5C"/>
<path d="M46.836 17.8841H45.48V12.0904C45.4789 12.0536 45.4749 12.0169 45.468 11.9806C45.4702 11.7476 45.3771 11.5217 45.206 11.3447L34.32 0.334761L34.312 0.327677C34.1738 0.194819 33.9975 0.0975147 33.802 0.046052L33.742 0.0283393C33.6589 0.00999115 33.5736 0.000477894 33.488 0H6.734C5.512 0 4.52 0.8803 4.52 1.96075V17.8841H3.164C1.416 17.8841 0 19.1381 0 20.6862V35.2598C0 36.8061 1.418 38.0619 3.164 38.0619H4.52V48.0392C4.52 49.1197 5.512 50 6.734 50H43.266C44.486 50 45.48 49.1197 45.48 48.0392V38.0619H46.836C48.584 38.0619 50 36.8061 50 35.2598V20.6862C50 19.1381 48.582 17.8841 46.836 17.8841V17.8841ZM6.734 1.96075H32.38V11.993C32.38 12.535 32.876 12.9725 33.488 12.9725H43.268V17.8841H6.734V1.96075ZM33.914 28.0509C33.914 30.853 32.762 32.7872 31.164 33.981C29.424 35.2616 26.776 35.8709 23.538 35.8709C21.6 35.8709 20.228 35.7611 19.294 35.6548V21.2742C20.668 21.0794 22.458 20.9713 24.348 20.9713C27.486 20.9713 29.522 21.4708 31.116 22.5353C32.834 23.6636 33.914 25.4667 33.914 28.0509V28.0509ZM5.042 35.7204V21.2742C6.194 21.1006 7.814 20.9713 10.094 20.9713C12.4 20.9713 14.044 21.3628 15.146 22.1439C16.2 22.8825 16.91 24.0993 16.91 25.5323C16.91 26.9669 16.372 28.182 15.39 29.0074C14.114 30.0719 12.226 30.5501 10.018 30.5501C9.528 30.5501 9.086 30.5289 8.744 30.4846V35.7204H5.042ZM43.266 47.5079H6.734V38.0619H43.266V47.5079ZM46.474 23.7947H40.12V27.1405H46.056V29.8346H40.12V35.7204H36.37V21.0794H46.474V23.7947Z" fill="#ED4C5C"/>
</svg>
