<svg width="50" height="51" viewBox="0 0 50 51" fill="none" xmlns="http://www.w3.org/2000/svg">
<path fill-rule="evenodd" clip-rule="evenodd" d="M26.0271 0.46568L48.9927 6.75847C49.5536 6.91607 50.0132 7.43232 49.9997 7.91052V34.1251C49.9997 34.6087 49.6145 35.2391 49.1481 35.5325L25.8514 50.1288C25.6216 50.2755 25.3107 50.3516 24.9999 50.3516C24.689 50.3516 24.3848 50.2755 24.1483 50.1288L0.851577 35.5325C0.385237 35.2336 0 34.6033 0 34.1251V7.91052C0 7.43232 0.459581 6.91063 1.02054 6.75847L23.9861 0.46568C24.2632 0.389602 24.6349 0.351562 25.0066 0.351562C25.3783 0.351562 25.75 0.389602 26.0271 0.46568ZM25.0066 45.6999L45.1471 33.0817V9.8451L25.0066 4.32396L4.86615 9.8451V33.0817L25.0066 45.6999Z" fill="#ED4C5C"/>
<path fill-rule="evenodd" clip-rule="evenodd" d="M17.633 26.2618L12.3952 30.4733C12.2945 30.555 12.2381 30.6653 12.2381 30.7803C12.2381 30.8953 12.2945 31.0056 12.3952 31.0874L14.6931 32.935C14.9026 33.1034 15.2473 33.1034 15.4568 32.935L20.6947 28.7235C24.4592 30.6309 29.4875 30.2668 32.7654 27.6312C36.5705 24.5718 36.5705 19.6158 32.7654 16.5563C28.9604 13.4969 22.7966 13.4969 18.9915 16.5563C15.7136 19.1919 15.2608 23.2404 17.633 26.2618ZM29.7038 19.018C27.5951 17.3171 24.1686 17.3171 22.0531 19.018C19.9377 20.7189 19.9445 23.4686 22.0531 25.1695C24.1618 26.8704 27.5884 26.8704 29.7038 25.1695C31.8192 23.4741 31.8192 20.7189 29.7038 19.018Z" fill="#ED4C5C"/>
</svg>
