<?xml version="1.0" encoding="UTF-8"?>
<svg xmlns="http://www.w3.org/2000/svg" xmlns:xlink="http://www.w3.org/1999/xlink" width="50px" height="50px" viewBox="0 0 50 50" version="1.1">
<g id="surface1">
<path style=" stroke:none;fill-rule:nonzero;fill:black;fill-opacity:1;" d="M 25 0 C 11.191406 0 0 11.191406 0 25 C 0 38.808594 11.191406 50 25 50 C 38.808594 50 50 38.808594 50 25 C 50 11.191406 38.808594 0 25 0 Z M 37.363281 24.863281 C 36.140625 26.085938 34.164062 26.085938 32.945312 24.863281 L 28.125 20.046875 L 28.125 37.5 C 28.125 39.226562 26.726562 40.625 25 40.625 C 23.273438 40.625 21.875 39.226562 21.875 37.5 L 21.875 20.046875 L 17.050781 24.863281 C 15.828125 26.085938 13.851562 26.085938 12.632812 24.863281 C 11.410156 23.640625 11.410156 21.664062 12.632812 20.445312 L 22.699219 10.375 C 23.5625 9.511719 24.523438 9.375 25 9.375 C 25.476562 9.375 26.429688 9.511719 27.210938 10.292969 L 37.28125 20.359375 C 38.585938 21.671875 38.585938 23.640625 37.363281 24.863281 Z M 37.363281 24.863281 "/>
</g>
</svg>
